<?xml version="1.0" encoding="UTF-8"?>
<svg id="Lag_2" data-name="Lag 2" xmlns="http://www.w3.org/2000/svg" viewBox="0 0 42.68 39.72">
  <defs>
    <style>
      .cls-1 {
        fill: #fff;
        stroke-width: 0px;
      }
    </style>
  </defs>
  <g id="Lag_1-2" data-name="Lag 1">
    <g id="SvgjsG1007">
      <g>
        <path class="cls-1" d="M6.85,1.35l-5.44.45c-.1,0-.18.02-.25.03-.07.02-.12.03-.15.05-.03.02-.05.04-.05.06,0,.02.03.04.08.07l2.78,1.27c.05.02.12.04.2.06.08.02.18.03.28.04.1,0,.21.01.32.02.11,0,.22,0,.32-.01l5.68-.5c.1,0,.18-.02.25-.04.06-.02.11-.04.14-.06.03-.02.04-.04.02-.07-.01-.02-.05-.05-.1-.07l-3.03-1.21c-.05-.02-.12-.04-.2-.05-.08-.01-.17-.03-.26-.04-.1,0-.2-.01-.3-.01-.1,0-.2,0-.3.01"/>
        <path class="cls-1" d="M15.2.66l-5.15.43c-.09,0-.17.02-.23.03-.06.01-.11.03-.13.05-.03.02-.04.04-.02.06.01.02.04.04.09.06l3.09,1.2c.06.02.13.04.22.06.09.02.18.03.28.04.1,0,.21.01.31.02s.21,0,.31-.01l5.37-.48c.09,0,.17-.02.23-.04.06-.01.1-.03.12-.05s.02-.04,0-.06c-.02-.02-.06-.04-.12-.06l-3.31-1.15c-.06-.02-.13-.04-.21-.05-.08-.01-.17-.03-.27-.03-.1,0-.19-.01-.29-.01-.1,0-.19,0-.28,0"/>
        <path class="cls-1" d="M23.06,0l-4.89.41c-.09,0-.16.02-.22.03-.06.01-.09.03-.12.05-.02.02-.02.04,0,.06.02.02.05.04.11.06l3.36,1.14c.06.02.14.04.23.05.09.02.19.03.29.04s.21.01.31.01c.1,0,.2,0,.29-.01l5.08-.45c.09,0,.16-.02.21-.03.05-.01.09-.03.1-.05s0-.04-.02-.06c-.02-.02-.07-.04-.13-.06L24.11.09c-.06-.02-.14-.03-.22-.05-.08-.01-.18-.02-.27-.03-.09,0-.19-.01-.29-.01-.1,0-.19,0-.27,0"/>
        <path class="cls-1" d="M11.71,3.32l-5.75.52c-.1,0-.19.02-.26.04s-.12.04-.16.06c-.03.02-.05.05-.04.07,0,.02.04.05.09.08l3.23,1.47c.06.03.14.05.23.07.09.02.2.04.31.05.11.01.23.02.35.02s.23,0,.34-.01l6.02-.59c.1-.01.19-.03.26-.04.07-.02.11-.04.14-.06.03-.02.03-.05.01-.08-.02-.03-.06-.05-.12-.08l-3.5-1.4c-.06-.02-.14-.04-.22-.06-.09-.02-.19-.03-.29-.04-.1,0-.21-.01-.32-.02-.11,0-.21,0-.31.01"/>
        <path class="cls-1" d="M20.51,2.53l-5.43.49c-.1,0-.18.02-.24.04-.06.02-.11.04-.13.06-.02.02-.03.04-.01.07.02.02.05.05.11.07l3.57,1.38c.07.03.15.05.25.07.1.02.2.03.31.04.11.01.23.02.34.02.11,0,.23,0,.33-.01l5.67-.55c.1,0,.18-.02.24-.04.06-.02.1-.04.12-.06.02-.02.01-.05-.01-.07-.03-.02-.07-.05-.14-.08l-3.81-1.32c-.06-.02-.14-.04-.23-.06-.09-.02-.19-.03-.29-.04s-.21-.01-.32-.01c-.11,0-.21,0-.3.01"/>
        <path class="cls-1" d="M28.77,1.78l-5.13.46c-.09,0-.17.02-.22.04-.06.02-.09.03-.11.05-.02.02-.02.04,0,.06.02.02.07.05.13.07l3.87,1.31c.07.02.16.05.26.06s.21.03.32.04c.11,0,.23.02.34.02s.22,0,.31-.01l5.34-.52c.09,0,.17-.02.22-.04.05-.02.08-.04.1-.06.01-.02,0-.04-.03-.07-.03-.02-.09-.05-.16-.07l-4.08-1.25c-.07-.02-.15-.04-.25-.05-.09-.02-.19-.03-.3-.04s-.21-.01-.31-.01c-.1,0-.2,0-.29.01"/>
        <path class="cls-1" d="M17.33,5.6l-6.1.61c-.11.01-.2.03-.28.05-.07.02-.13.04-.16.07s-.04.05-.03.08c.01.03.05.06.12.09l3.79,1.72c.07.03.16.06.27.08.1.02.22.04.35.06.12.01.25.02.38.02.13,0,.25,0,.37-.02l6.4-.69c.11-.01.2-.03.27-.05.07-.02.11-.05.14-.08.02-.03.02-.06,0-.09-.03-.03-.08-.06-.15-.09l-4.09-1.64c-.07-.03-.16-.05-.25-.07-.1-.02-.21-.04-.32-.05s-.23-.02-.35-.02c-.12,0-.23,0-.34.01"/>
        <path class="cls-1" d="M26.63,4.67l-5.73.57c-.1.01-.19.03-.25.04-.06.02-.11.04-.13.07-.02.02-.02.05,0,.08.02.03.07.06.14.08l4.17,1.62c.08.03.17.06.28.08.11.02.23.04.35.05.12.01.25.02.37.02.12,0,.24,0,.35-.02l5.99-.65c.1-.01.19-.03.25-.05.06-.02.1-.04.11-.07.01-.03,0-.05-.03-.08-.03-.03-.09-.06-.17-.09l-4.43-1.54c-.07-.03-.17-.05-.27-.07-.1-.02-.21-.03-.33-.04-.11-.01-.23-.02-.34-.02-.11,0-.22,0-.32.01"/>
        <path class="cls-1" d="M35.32,3.81l-5.4.54c-.1,0-.18.02-.23.04-.06.02-.09.04-.11.06-.01.02,0,.05.02.07.03.03.08.05.16.08l4.49,1.52c.08.03.18.05.3.07.11.02.23.04.35.05s.25.02.37.02c.12,0,.23,0,.33-.01l5.62-.61c.1-.01.17-.03.22-.05.05-.02.08-.04.09-.07s-.01-.05-.05-.08-.11-.05-.19-.08l-4.72-1.45c-.08-.02-.17-.05-.28-.06-.1-.02-.21-.03-.33-.04-.11,0-.23-.02-.34-.02-.11,0-.22,0-.31.01"/>
        <path class="cls-1" d="M.64,21.34l.19,5.35c0,.09.02.19.04.29.02.1.05.19.08.28.03.09.07.17.11.24.04.07.08.12.13.16l2.66,2.33s.1.06.14.07c.04,0,.08-.02.11-.05.03-.04.05-.09.07-.16.02-.07.02-.15.02-.25l-.17-5.62c0-.1-.02-.2-.04-.31-.02-.1-.05-.2-.09-.29s-.08-.17-.12-.25c-.04-.07-.09-.13-.14-.16l-2.68-2.06s-.09-.05-.13-.04c-.04,0-.07.03-.1.07-.03.04-.05.1-.06.17-.01.07-.02.15-.02.25"/>
        <path class="cls-1" d="M.33,12.52l.2,5.53c0,.1.02.2.04.29.02.1.05.19.08.28.03.09.07.16.11.23.04.06.09.12.13.15l2.69,1.98s.1.05.14.05c.04,0,.08-.03.11-.07.03-.04.06-.1.07-.18.02-.08.02-.16.02-.27l-.17-5.82c0-.1-.02-.21-.04-.31-.02-.1-.05-.2-.09-.29-.04-.09-.08-.17-.12-.24-.04-.07-.09-.12-.14-.15l-2.72-1.7s-.09-.04-.13-.02c-.04.01-.07.04-.1.09-.03.05-.05.11-.06.18-.01.08-.02.16-.02.26"/>
        <path class="cls-1" d="M0,3.47l.21,5.73c0,.1.02.2.04.3.02.1.05.19.08.27.03.08.07.16.11.22.04.06.09.11.13.13l2.73,1.62c.05.03.1.04.14.02.04-.01.08-.05.11-.09.03-.05.06-.12.07-.2.02-.08.02-.18.02-.28l-.18-6.03c0-.11-.02-.22-.04-.32-.02-.1-.05-.2-.09-.29-.04-.09-.08-.16-.12-.22-.05-.06-.09-.11-.15-.13L.31,2.88s-.09-.02-.13,0c-.04.02-.07.06-.1.11-.03.05-.05.12-.06.2-.01.08-.02.17-.02.28"/>
        <path class="cls-1" d="M4.98,24.71l.16,5.69c0,.1.02.2.04.31.02.1.05.2.09.3.04.1.08.18.12.26.05.08.1.14.15.18l3.06,2.68c.06.05.11.08.16.08.05,0,.09-.01.13-.05.04-.04.07-.09.08-.16.02-.07.03-.16.03-.27l-.12-5.99c0-.11-.02-.22-.04-.33-.02-.11-.06-.22-.1-.32-.04-.1-.09-.19-.14-.27-.05-.08-.11-.14-.16-.19l-3.1-2.38c-.05-.04-.1-.06-.15-.05-.04,0-.08.03-.12.07-.03.04-.06.1-.07.17-.02.07-.02.16-.02.26"/>
        <path class="cls-1" d="M4.72,15.31l.16,5.9c0,.1.02.21.04.31s.05.2.09.3c.04.09.08.18.12.25.05.07.1.13.15.17l3.11,2.29c.06.04.11.06.16.06s.09-.03.13-.07.07-.11.09-.18c.02-.08.03-.17.03-.28l-.13-6.23c0-.11-.02-.23-.04-.34-.02-.11-.06-.22-.1-.32s-.09-.19-.14-.26c-.05-.07-.11-.13-.17-.17l-3.14-1.96c-.05-.03-.1-.04-.15-.03-.04.01-.08.04-.12.09-.03.05-.06.11-.08.19-.02.08-.03.17-.02.28"/>
        <path class="cls-1" d="M4.45,5.63l.17,6.12c0,.11.02.22.04.32.02.1.05.2.09.3s.08.17.13.24c.05.07.1.12.15.15l3.15,1.87c.06.04.11.05.16.03.05-.01.1-.04.13-.1s.07-.12.09-.21c.02-.09.03-.19.03-.3l-.13-6.48c0-.12-.02-.23-.04-.34s-.06-.22-.1-.31-.09-.18-.14-.25c-.05-.07-.11-.12-.17-.15l-3.19-1.52c-.05-.03-.1-.03-.15,0-.05.02-.09.06-.12.11-.03.06-.06.13-.08.21-.02.09-.02.18-.02.29"/>
        <path class="cls-1" d="M9.97,28.6l.11,6.08c0,.11.02.22.04.33.02.11.06.22.1.33.04.1.09.2.14.29.05.08.11.16.17.21l3.56,3.11c.07.06.13.09.19.1.06,0,.11,0,.15-.04.04-.03.08-.09.1-.17.02-.08.04-.17.04-.28l-.06-6.42c0-.12-.02-.24-.04-.35-.03-.12-.06-.24-.11-.35-.05-.11-.1-.21-.16-.3-.06-.09-.12-.16-.19-.21l-3.61-2.77c-.06-.05-.12-.07-.17-.07s-.1.02-.14.06c-.04.04-.07.1-.09.18-.02.08-.03.17-.03.28"/>
        <path class="cls-1" d="M9.79,18.53l.11,6.32c0,.11.02.22.04.34.02.11.06.22.1.32.04.1.09.2.14.28.05.08.11.14.17.19l3.62,2.67c.07.05.13.07.19.07.06,0,.11-.02.15-.07.04-.04.08-.11.1-.19.02-.08.04-.18.04-.3l-.06-6.7c0-.12-.02-.24-.04-.36s-.06-.24-.11-.35c-.05-.11-.1-.21-.16-.29-.06-.08-.13-.15-.19-.19l-3.68-2.29c-.06-.04-.12-.05-.17-.04-.05,0-.1.04-.14.09s-.07.12-.09.2c-.02.09-.03.19-.03.3"/>
        <path class="cls-1" d="M9.74,8.14l.12,6.58c0,.11.02.23.04.34.02.11.06.22.1.32.04.1.09.19.15.26.05.07.11.13.18.17l3.69,2.19c.07.04.13.06.19.05.06,0,.11-.04.16-.09.05-.05.08-.13.11-.22.02-.09.04-.2.04-.32l-.06-6.99c0-.13-.02-.25-.04-.37-.03-.12-.07-.24-.11-.34-.05-.1-.1-.2-.16-.27-.06-.08-.13-.13-.2-.16l-3.75-1.78c-.06-.03-.12-.03-.18-.02-.05.02-.1.06-.14.12s-.07.13-.09.23-.03.2-.03.32"/>
        <path class="cls-1" d="M22.92,8.63l-6.52.73c-.12.01-.23.05-.33.11-.1.06-.19.14-.27.23s-.14.2-.18.32c-.04.12-.07.24-.07.37l.05,7.15c0,.12.03.24.07.34.04.1.11.19.18.26.08.07.17.12.27.16.1.03.21.04.33.02l6.41-.9c.11-.02.22-.06.31-.11.1-.06.18-.13.26-.23.07-.09.13-.19.18-.3.04-.11.07-.23.07-.35l.06-6.97c0-.12-.02-.24-.06-.35-.04-.1-.1-.2-.17-.27-.07-.07-.16-.13-.26-.17s-.2-.05-.32-.04"/>
        <path class="cls-1" d="M32.81,7.53l-6.09.68c-.11.01-.22.05-.31.11-.1.06-.18.13-.26.22s-.13.19-.18.31c-.04.11-.07.23-.07.36l-.09,6.93c0,.12.02.23.06.33s.1.19.17.25.15.12.25.15.2.04.31.03l6-.84c.1-.01.2-.05.29-.11s.17-.13.24-.22c.07-.09.13-.19.17-.29.04-.11.07-.22.07-.34l.19-6.76c0-.12-.01-.23-.05-.34-.04-.1-.09-.19-.16-.26-.07-.07-.15-.13-.24-.16-.09-.04-.19-.05-.29-.04"/>
        <path class="cls-1" d="M42,6.5l-5.71.64c-.1.01-.2.05-.29.1-.09.05-.17.13-.24.21s-.13.19-.17.3c-.04.11-.07.23-.07.35l-.21,6.72c0,.12.01.23.05.32.03.1.09.18.15.25.06.07.14.12.23.15.09.03.18.04.28.03l5.62-.79c.1-.01.19-.05.28-.1.09-.05.16-.13.23-.21.07-.08.12-.18.16-.29.04-.1.06-.22.07-.33l.29-6.57c0-.12,0-.23-.04-.33-.03-.1-.08-.18-.14-.25-.06-.07-.14-.12-.22-.16-.08-.03-.18-.05-.28-.04"/>
        <path class="cls-1" d="M22.83,19.72l-6.38.95c-.12.02-.23.06-.33.12-.1.06-.19.14-.27.23-.08.09-.14.2-.18.31-.04.11-.06.23-.06.36l.05,6.85c0,.12.02.23.07.33.04.1.1.18.18.24.08.07.16.11.26.14.1.03.21.03.32.01l6.27-1.11c.11-.02.21-.06.31-.12.09-.06.18-.14.25-.22.07-.09.13-.19.17-.3.04-.11.06-.22.06-.34l.06-6.69c0-.12-.02-.23-.06-.33-.04-.1-.1-.18-.17-.25-.07-.07-.16-.12-.25-.15-.1-.03-.2-.04-.31-.02"/>
        <path class="cls-1" d="M32.53,18.28l-5.97.89c-.11.02-.21.06-.31.11-.09.06-.18.13-.25.22-.07.09-.13.19-.17.3s-.06.23-.07.35l-.09,6.64c0,.12.02.22.06.32.04.09.09.17.16.24.07.06.15.11.24.14.09.03.19.03.3.01l5.88-1.04c.1-.02.2-.06.29-.12.09-.06.17-.13.24-.22.07-.09.12-.18.17-.29.04-.11.06-.22.07-.33l.18-6.49c0-.12-.01-.22-.05-.32-.04-.1-.09-.18-.15-.25s-.14-.12-.23-.15c-.09-.03-.19-.04-.29-.02"/>
        <path class="cls-1" d="M41.55,16.94l-5.6.83c-.1.01-.2.05-.29.11s-.17.13-.24.22c-.07.09-.13.18-.17.29-.04.11-.06.22-.07.34l-.2,6.45c0,.11.01.22.05.31s.08.17.15.23c.06.06.14.11.22.13.09.03.18.03.28.01l5.52-.97c.1-.02.19-.06.27-.11.09-.06.16-.13.23-.21.07-.08.12-.18.16-.28.04-.1.06-.21.07-.32l.28-6.31c0-.11,0-.22-.04-.31-.03-.09-.08-.17-.14-.24-.06-.07-.13-.11-.22-.14-.08-.03-.17-.04-.27-.02"/>
        <path class="cls-1" d="M22.76,30.32l-6.25,1.15c-.11.02-.22.07-.32.13-.1.06-.19.14-.26.23-.07.09-.13.19-.17.3-.04.11-.06.23-.06.34l.04,6.56c0,.11.02.22.07.31.04.09.1.17.18.23.07.06.16.1.26.12.1.02.2.02.31,0l6.15-1.29c.11-.02.21-.07.3-.13.09-.06.18-.14.25-.23.07-.09.13-.19.17-.29.04-.11.06-.22.06-.33l.06-6.42c0-.12-.02-.22-.06-.31-.04-.09-.1-.17-.17-.23-.07-.06-.15-.11-.25-.13-.09-.02-.2-.03-.31,0"/>
        <path class="cls-1" d="M32.26,28.58l-5.85,1.07c-.11.02-.21.06-.3.12s-.18.13-.25.22-.13.19-.17.29c-.04.11-.06.22-.06.33l-.08,6.38c0,.11.02.21.06.3.04.09.09.16.16.22.07.06.15.1.24.12s.19.02.29,0l5.77-1.21c.1-.02.2-.06.28-.12.09-.06.17-.13.23-.22.07-.09.12-.18.16-.28s.06-.21.07-.32l.17-6.24c0-.11-.01-.22-.05-.31-.03-.09-.09-.17-.15-.23-.06-.06-.14-.11-.23-.13-.09-.03-.18-.03-.29-.01"/>
        <path class="cls-1" d="M41.12,26.95l-5.5,1.01c-.1.02-.19.06-.28.12-.09.06-.17.13-.23.22-.07.08-.12.18-.16.29-.04.1-.06.21-.07.32l-.19,6.2c0,.11.01.21.05.29.03.09.08.16.15.22.06.06.14.1.22.12.08.02.18.02.27,0l5.42-1.14c.09-.02.18-.06.27-.12.08-.06.16-.13.22-.21.07-.08.12-.18.16-.28.04-.1.06-.2.07-.31l.27-6.07c0-.11,0-.21-.04-.3-.03-.09-.08-.16-.14-.22-.06-.06-.13-.1-.21-.13-.08-.03-.17-.03-.27-.01"/>
      </g>
    </g>
  </g>
</svg>